<svg xmlns="http://www.w3.org/2000/svg" version="1.1" xmlns:xlink="http://www.w3.org/1999/xlink" xmlns:svgjs="http://svgjs.dev/svgjs" viewBox="0 0 800 800"><defs><linearGradient x1="50%" y1="0%" x2="50%" y2="100%" id="ccchaos-grad"><stop stop-color="#110a29" stop-opacity="1" offset="0%"></stop><stop stop-color="hsl(331, 90%, 56%)" stop-opacity="1" offset="100%"></stop></linearGradient></defs><g stroke-width="2" stroke="url(#ccchaos-grad)" fill="none" stroke-linecap="round"><path d="M393.53 114.94C403.25 110.57 413.13 107.06 423.17 104.73 433.24 103.34 443.49 103.59 453.9 105.5 464.37 108.62 475.03 113.25 485.85 119.13 496.73 125.66 507.77 132.9 518.92 140.51 530.08 147.9 541.29 155.14 552.44 162.03 563.48 168.09 574.32 173.6 584.81 178.56 594.96 182.61 604.53 186.24 613.35 189.61 621.52 192.4 628.7 195.23 634.71 198.27 641.75 202.9 647.76 215.32 646.92 223.49 645.51 229.56 643.29 236.36 640.54 243.81 638.15 251.63 635.86 260.02 634.05 268.86 633.53 277.98 634.09 287.44 635.96 297.13 639.69 306.99 644.92 316.99 651.57 327.03 659.8 337.15 668.97 347.25 678.64 357.25 688.68 367.28 698.2 377.16 706.59 386.84 713.73 396.52 718.61 405.74 720.99 414.5 721.27 423.25 718.9 431.55 714.08 439.41 707.45 447.3 698.94 454.82 688.99 462.02 678.3 469.36 667.04 476.51 655.64 483.57 644.68 490.97 634.26 498.49 624.62 506.26 616.14 514.61 608.68 523.43 602.25 532.83 597.08 542.98 592.79 553.83 589.18 565.36 586.51 577.53 584.18 590.21 581.97 603.2 580.2 616.24 578.2 629.05 575.8 641.21 573.42 652.44 570.41 662.27 566.71 670.24 560.45 678.25 543.66 679.19 533.27 672.85 525.89 667.26 517.91 660.96 509.42 654.71 500.77 649.84 491.7 646.45 482.28 645.15 472.78 646.8 463 651.05 452.98 657.78 442.94 666.92 432.71 677.43 422.31 688.36 411.91 699.08 401.6 707.94 391.39 714.15 381.18 717.69 371.06 717.67 361.03 714.14 350.98 707.77 340.99 698.62 331.09 687.42 321.13 675.17 311.23 662.37 301.4 649.82 291.52 638.3 281.7 628.11 271.97 619.58 262.22 613.11 252.59 608.42 243.13 605.32 233.72 603.99 224.54 603.63 215.66 603.82 206.93 604.74 198.59 605.45 190.7 605.58 183.09 605.47 176.01 604.3 169.55 601.92 163.43 598.81 157.96 594.38 153.18 588.72 148.73 582.29 144.94 574.77 141.81 566.35 138.89 557.37 136.53 547.73 134.68 537.62 132.83 527.2 131.35 516.51 130.18 505.7 128.79 494.78 127.58 483.85 126.52 473.02 125.07 462.18 123.71 451.48 122.43 440.99 120.76 430.5 119.22 420.23 117.87 410.21 116.29 400.19 115.1 390.62 114.35 381.51 113.64 372.37 113.56 363.64 114.14 355.29 114.99 346.87 116.62 338.76 119.03 330.93 121.83 322.94 125.42 315.13 129.77 307.44 134.46 299.48 139.83 291.52 145.78 283.5 151.93 275.1 158.55 266.54 165.54 257.76 172.52 248.56 179.76 239.13 187.16 229.5 194.39 219.56 201.71 209.54 209.07 199.55 216.17 189.59 223.3 179.95 230.45 170.83 237.32 162.2 244.23 154.42 251.22 147.71 257.97 141.89 264.84 137.32 271.87 134.09 278.71 131.74 285.78 130.6 293.07 130.53 300.25 130.81 307.72 131.67 315.47 132.83 323.16 133.47 331.18 133.83 339.52 133.66 347.82 132.32 356.47 130.22 365.47 127.38 374.45 123.48 383.8 119.23 393.52 114.95" stroke-dasharray="8 0" transform="rotate(0, 400, 400)" opacity="0.72"></path><path d="M399.62 125.97C409.1 121.64 418.76 118.13 428.56 115.71 438.39 114.18 448.39 114.17 458.54 115.75 468.73 118.48 479.07 122.69 489.52 128.15 500 134.33 510.57 141.28 521.16 148.72 531.71 156.08 542.2 163.43 552.53 170.54 562.69 176.98 572.53 182.94 581.92 188.4 590.92 192.99 599.27 197.15 606.81 200.96 616.69 205.65 629.89 214.75 632.89 219.94 633.7 225.74 630.02 240.8 626.69 250.14 624.86 256.87 623.27 264.17 622.22 271.96 622.45 280 623.72 288.44 626.2 297.18 630.38 306.08 635.88 315.2 642.61 324.44 650.71 333.76 659.58 343.14 668.83 352.51 678.35 361.9 687.35 371.23 695.27 380.44 702.06 389.66 706.77 398.52 709.2 407.04 709.72 415.55 707.81 423.74 703.62 431.63 697.73 439.57 690.03 447.29 680.89 454.84 670.97 462.57 660.35 470.26 649.44 478.02 638.77 486.11 628.42 494.44 618.65 503.11 609.82 512.3 601.85 521.97 594.76 532.19 588.8 542.97 583.67 554.31 579.23 566.14 575.71 578.32 572.62 590.74 569.76 603.15 567.43 615.32 565.03 626.95 562.41 637.66 559.93 647.29 557 655.37 553.53 661.57 547.85 667.14 532.89 664.85 523.6 658.09 517.02 652.71 509.83 646.95 502.11 641.47 494.27 637.47 485.95 634.97 477.22 634.46 468.43 636.67 459.29 641.23 449.84 647.98 440.38 656.87 430.65 666.94 420.69 677.34 410.72 687.53 400.78 696.05 390.87 702.15 380.97 705.88 371.1 706.36 361.28 703.61 351.45 698.2 341.66 690.11 331.91 679.94 322.15 668.57 312.43 656.42 302.77 644.18 293.11 632.62 283.51 622.02 274.03 612.75 264.57 605.24 255.25 599.31 246.14 594.9 237.12 592.19 228.36 590.58 219.93 589.72 211.7 589.81 203.87 589.99 196.51 589.94 189.45 589.97 182.92 589.25 177 587.63 171.42 585.53 166.46 582.33 162.15 578.02 158.15 573.09 154.76 567.1 151.99 560.19 149.38 552.76 147.27 544.57 145.63 535.8 143.96 526.69 142.61 517.18 141.54 507.4 140.22 497.46 139.05 487.38 138 477.27 136.56 467.11 135.18 456.99 133.88 446.96 132.18 436.94 130.6 427.04 129.19 417.3 127.55 407.56 126.27 398.2 125.42 389.2 124.6 380.18 124.36 371.48 124.77 363.07 125.43 354.58 126.85 346.32 129.01 338.25 131.56 330.01 134.88 321.86 138.94 313.76 143.36 305.4 148.45 296.98 154.14 288.46 160.05 279.62 166.46 270.61 173.25 261.42 180.1 251.92 187.23 242.26 194.56 232.5 201.77 222.59 209.1 212.74 216.5 203.07 223.69 193.59 230.91 184.55 238.16 176.17 245.15 168.37 252.18 161.5 259.27 155.72 266.12 150.79 273.07 147.08 280.13 144.6 287.02 142.88 294.07 142.22 301.32 142.47 308.44 142.93 315.81 143.82 323.43 144.88 330.97 145.36 338.81 145.49 346.96 145.09 355.06 143.56 363.49 141.3 372.27 138.36 381.02 134.45 390.13 130.21 399.61 125.97" stroke-dasharray="2 9" transform="rotate(4.04, 400, 400)" opacity="0.81"></path><path d="M405.74 137C414.98 132.72 424.37 129.21 433.89 126.73 443.43 125.05 453.11 124.81 462.9 126.06 472.71 128.41 482.62 132.18 492.58 137.21 502.53 142.98 512.5 149.6 522.4 156.79 532.22 164.04 541.88 171.39 551.29 178.65 560.47 185.37 569.25 191.72 577.51 197.63 585.36 202.76 592.52 207.45 598.85 211.76 607 217.11 617.24 226.75 619.2 231.75 619.44 237 615.89 250.13 613.24 258.2 612.01 263.98 611.11 270.32 610.81 277.14 611.74 284.17 613.65 291.63 616.68 299.44 621.22 307.4 626.92 315.64 633.68 324.08 641.62 332.59 650.17 341.25 658.98 349.99 668 358.75 676.48 367.54 683.95 376.33 690.39 385.12 694.93 393.69 697.38 402.03 698.12 410.39 696.63 418.55 693.02 426.55 687.84 434.63 680.92 442.61 672.6 450.57 663.45 458.72 653.51 466.95 643.16 475.35 632.88 484.07 622.74 493.08 612.98 502.46 603.96 512.26 595.61 522.5 588.01 533.19 581.4 544.26 575.53 555.7 570.32 567.4 566 579.2 562.14 590.97 558.59 602.46 555.63 613.46 552.72 623.7 549.73 632.82 545.47 643.96 535.11 655.05 528.62 654.47 524 652.15 518.78 648.32 512.98 643.36 507.03 638.33 500.52 633.19 493.48 628.52 486.33 625.38 478.7 623.73 470.63 623.94 462.5 626.65 453.98 631.45 445.11 638.19 436.21 646.82 427 656.43 417.51 666.31 408.01 676 398.47 684.16 388.93 690.14 379.38 694.02 369.83 694.94 360.29 692.9 350.75 688.4 341.23 681.33 331.74 672.2 322.25 661.77 312.8 650.37 303.42 638.62 294.07 627.21 284.79 616.43 275.65 606.65 266.58 598.3 257.67 591.32 248.99 585.72 240.45 581.7 232.19 578.82 224.29 576.8 216.6 575.86 209.34 575.26 202.56 574.71 193.09 574.17 177.47 569.92 171.4 565.45 167.82 561.7 164.82 557.01 162.37 551.42 160.04 545.39 158.17 538.58 156.72 531.11 155.19 523.32 153.95 515.02 152.94 506.33 151.68 497.46 150.53 488.33 149.48 479.03 148.04 469.66 146.65 460.21 145.31 450.74 143.59 441.26 141.97 431.79 140.52 422.37 138.82 412.95 137.47 403.8 136.52 394.91 135.59 385.99 135.22 377.3 135.46 368.8 135.94 360.23 137.14 351.79 139.06 343.45 141.35 334.96 144.39 326.5 148.14 318.01 152.26 309.31 157.05 300.52 162.44 291.62 168.08 282.47 174.23 273.18 180.79 263.77 187.45 254.17 194.42 244.5 201.62 234.85 208.77 225.2 216.06 215.73 223.45 206.59 230.68 197.76 237.96 189.49 245.28 181.97 252.38 175.08 259.52 169.15 266.7 164.3 273.66 160.25 280.7 157.33 287.84 155.53 294.79 154.37 301.88 154.1 309.13 154.58 316.25 155.14 323.57 155.99 331.11 156.92 338.57 157.2 346.29 157.1 354.29 156.47 362.24 154.74 370.49 152.34 379.06 149.32 387.61 145.4 396.5 141.19 405.73 137" stroke-dasharray="2 9" transform="rotate(8.08, 400, 400)" opacity="0.87"></path><path d="M411.44 148.02C420.41 143.81 429.49 140.32 438.67 137.78 447.86 135.98 457.15 135.51 466.49 136.44 475.84 138.41 485.22 141.75 494.59 146.32 503.92 151.65 513.19 157.88 522.3 164.76 531.3 171.8 540.06 179.08 548.49 186.38 556.67 193.29 564.38 199.94 571.52 206.24 578.27 211.86 584.31 217.07 589.53 221.89 596.15 228 603.96 238.62 605.18 243.73 605.1 248.77 602.09 260.67 600.21 267.79 599.61 272.82 599.41 278.35 599.82 284.36 601.39 290.51 603.88 297.1 607.37 304.07 612.22 311.16 618.06 318.57 624.79 326.26 632.52 334.01 640.73 341.98 649.11 350.13 657.62 358.28 665.6 366.58 672.63 374.99 678.72 383.39 683.08 391.71 685.54 399.92 686.47 408.16 685.36 416.33 682.29 424.47 677.78 432.69 671.62 440.94 664.09 449.28 655.72 457.78 646.51 466.47 636.77 475.37 626.97 484.55 617.14 494.03 607.52 503.86 598.45 513.98 589.89 524.45 581.93 535.23 574.8 546.21 568.31 557.37 562.44 568.56 557.38 579.63 552.79 590.43 548.56 600.71 544.93 610.35 541.45 619.05 537.99 626.53 533.21 635.21 522.6 642.09 516.36 640.18 512.02 637.41 507.16 633.46 501.8 628.72 496.34 624.16 490.37 619.71 483.89 615.87 477.34 613.58 470.3 612.71 462.83 613.59 455.3 616.73 447.36 621.73 439.04 628.42 430.7 636.75 422.02 645.92 413.01 655.28 404.01 664.47 394.92 672.27 385.77 678.12 376.64 682.1 367.47 683.41 358.28 682.01 349.11 678.37 339.94 672.29 330.79 664.18 321.67 654.74 312.58 644.17 303.57 633.04 294.62 621.96 285.77 611.21 277.06 601.15 268.46 592.2 260.04 584.38 251.88 577.75 243.88 572.54 236.19 568.43 228.87 565.24 221.77 563.16 215.11 561.6 208.93 560.31 200.34 559.08 186.32 555.11 180.95 551.53 176.44 546.77 170.05 532.72 167.92 523.61 166.51 517.04 165.35 509.89 164.39 502.27 163.16 494.48 162.02 486.31 160.96 477.87 159.51 469.35 158.1 460.62 156.73 451.75 154.99 442.87 153.34 433.88 151.84 424.82 150.1 415.76 148.69 406.85 147.66 398.08 146.64 389.3 146.14 380.64 146.22 372.07 146.53 363.45 147.51 354.87 149.19 346.32 151.21 337.65 153.95 328.95 157.4 320.19 161.2 311.27 165.66 302.25 170.72 293.14 176.05 283.87 181.9 274.51 188.18 265.1 194.6 255.62 201.36 246.18 208.38 236.87 215.4 227.69 222.6 218.82 229.93 210.38 237.14 202.34 244.43 194.96 251.78 188.37 258.95 182.43 266.16 177.45 273.42 173.5 280.48 170.28 287.61 168.08 294.81 166.88 301.85 166.16 308.99 166.2 316.26 166.84 323.41 167.42 330.72 168.18 338.22 168.93 345.63 168.99 353.27 168.65 361.14 167.78 368.97 165.87 377.06 163.34 385.44 160.25 393.79 156.32 402.45 152.16 411.43 148.03" stroke-dasharray="10 7" transform="rotate(12.12, 400, 400)" opacity="0.42"></path><path d="M416.27 159.05C424.94 154.91 433.69 151.45 442.48 148.87 451.27 146.95 460.1 146.27 468.92 146.9 477.74 148.49 486.52 151.4 495.22 155.5 503.86 160.37 512.35 166.16 520.63 172.66 528.76 179.43 536.6 186.53 544.03 193.77 551.22 200.77 557.9 207.62 563.99 214.21 569.71 220.24 574.74 225.92 578.99 231.24 584.32 238.13 590.26 250.03 591.01 255.51 590.85 260.66 588.72 272.01 587.68 278.52 587.94 285.49 592.9 301.72 598.27 310.94 603.34 317.27 609.26 323.98 615.91 331.01 623.41 338.08 631.27 345.43 639.2 353.04 647.22 360.66 654.71 368.51 661.3 376.57 667.06 384.63 671.24 392.72 673.69 400.82 674.78 408.94 674.01 417.12 671.44 425.36 667.56 433.68 662.12 442.13 655.36 450.73 647.77 459.47 639.29 468.44 630.22 477.64 620.97 487.04 611.55 496.72 602.2 506.67 593.22 516.79 584.59 527.15 576.42 537.66 568.92 548.19 561.96 558.71 555.54 569.06 549.84 579.11 544.6 588.69 539.73 597.58 535.44 605.74 531.36 612.86 527.4 618.72 521.96 625.09 510.71 628.4 504.48 625.53 500.25 622.52 495.6 618.65 490.52 614.26 485.41 610.27 479.83 606.56 473.8 603.55 467.72 602.06 461.19 601.94 454.23 603.4 447.22 606.91 439.82 612.05 432.03 618.65 424.21 626.68 416.05 635.4 407.54 644.25 399.04 652.95 390.42 660.39 381.72 666.08 373.05 670.12 364.31 671.77 355.54 670.96 346.8 668.11 338.06 662.97 329.33 655.87 320.65 647.43 312.02 637.76 303.48 627.35 295 616.77 286.65 606.24 278.47 596.13 270.41 586.82 262.56 578.39 254.98 570.94 247.58 564.71 240.49 559.49 233.79 555.16 224.29 550.62 207.99 544.83 201.31 542.48 195.52 540.17 186.81 532.95 183.75 527.65 181.15 521.33 177.36 505.07 175.87 495.35 174.65 488.55 173.51 481.31 172.42 473.69 170.97 466 169.53 458.01 168.13 449.77 166.38 441.5 164.7 433.02 163.16 424.36 161.39 415.71 159.93 407.07 158.83 398.49 157.72 389.89 157.12 381.31 157.05 372.75 157.18 364.15 157.96 355.52 159.39 346.86 161.15 338.13 163.6 329.32 166.72 320.45 170.19 311.48 174.31 302.43 179.01 293.32 184 284.14 189.52 274.94 195.48 265.77 201.61 256.65 208.1 247.66 214.88 238.91 221.71 230.39 228.75 222.27 235.95 214.68 243.08 207.55 250.32 201.11 257.64 195.5 264.82 190.51 272.07 186.44 279.35 183.35 286.49 180.87 293.68 179.3 300.93 178.6 308.03 178.24 315.22 178.49 322.51 179.19 329.69 179.73 337 180.36 344.46 180.88 351.84 180.71 359.4 180.12 367.16 179.02 374.88 176.94 382.82 174.29 391 171.14 399.16 167.23 407.58 163.12 416.26 159.06" stroke-dasharray="4 5" transform="rotate(16.16, 400, 400)" opacity="0.94"></path><path d="M419.88 170.08C428.23 166.02 436.59 162.6 444.94 159.99 453.28 157.97 461.6 157.1 469.86 157.45 478.09 158.68 486.22 161.15 494.2 164.77 502.11 169.16 509.81 174.48 517.22 180.54 524.5 186.96 531.42 193.8 537.9 200.88 544.14 207.85 549.87 214.78 555 221.56 559.82 227.91 563.98 233.97 567.42 239.73 571.71 247.4 576.32 260.73 576.86 266.75 576.84 272.26 575.83 283.69 575.66 289.92 576.85 296.41 583.46 311.27 589.36 319.68 594.59 325.44 600.52 331.57 607.05 338.06 614.28 344.56 621.77 351.39 629.26 358.54 636.79 365.69 643.8 373.15 649.98 380.89 655.41 388.64 659.4 396.5 661.83 404.47 663.05 412.46 662.58 420.59 660.48 428.85 657.18 437.18 652.42 445.69 646.4 454.39 639.58 463.19 631.85 472.22 623.47 481.47 614.83 490.83 605.91 500.41 596.93 510.16 588.17 519.96 579.61 529.86 571.37 539.76 563.67 549.53 556.38 559.12 549.55 568.37 543.34 577.19 537.53 585.41 532.1 592.82 524.88 602.25 511.92 613.69 505.73 615.25 499.75 614.11 486.81 605.78 479.6 600.05 472.02 595.22 454.88 591.11 445.29 593.37 438.74 597.18 431.8 602.41 424.5 608.88 417.18 616.59 409.5 624.88 401.5 633.23 393.5 641.44 385.37 648.51 377.17 654.02 368.97 658.1 360.72 660.04 352.43 659.75 344.18 657.62 335.93 653.37 327.7 647.25 319.53 639.8 311.42 631.08 303.41 621.49 295.49 611.54 287.71 601.42 280.12 591.45 272.65 582.02 265.42 573.21 258.47 565.16 251.7 558.12 245.25 551.95 239.19 546.61 230.63 540.43 216.08 531.85 210.19 528.55 201.26 522.16 192.38 508.46 190.61 501.85 189.37 497.11 188.3 491.8 187.37 485.97 186.15 480.02 184.99 473.59 183.88 466.73 182.4 459.81 180.94 452.52 179.51 444.89 177.74 437.23 176.05 429.28 174.48 421.06 172.7 412.83 171.2 404.54 170.03 396.2 168.86 387.85 168.15 379.45 167.95 370.99 167.92 362.52 168.5 353.97 169.7 345.36 171.19 336.71 173.35 327.98 176.14 319.19 179.27 310.37 183.02 301.49 187.36 292.61 191.98 283.75 197.12 274.93 202.72 266.23 208.51 257.67 214.69 249.33 221.18 241.32 227.75 233.61 234.57 226.38 241.57 219.73 248.55 213.56 255.67 208.1 262.89 203.45 270.03 199.38 277.23 196.17 284.5 193.84 291.64 192.01 298.85 190.97 306.1 190.66 313.24 190.55 320.45 190.91 327.73 191.61 334.92 192.05 342.21 192.49 349.62 192.77 356.96 192.35 364.44 191.51 372.08 190.18 379.67 187.94 387.45 185.19 395.41 181.99 403.36 178.11 411.51 174.07 419.86 170.08" stroke-dasharray="3 11" transform="rotate(20.200000000000003, 400, 400)" opacity="0.14"></path><path d="M421.99 181.11C429.98 177.15 437.93 173.77 445.8 171.15 453.66 169.05 461.44 168 469.09 168.08 476.71 168.96 484.17 171.01 491.42 174.16 498.59 178.05 505.5 182.87 512.08 188.45 518.52 194.45 524.58 200.94 530.18 207.77 535.57 214.59 540.45 221.49 544.75 228.34 548.8 234.88 552.24 241.23 555.04 247.35 558.56 255.68 562.36 270.46 562.91 277.13 563.21 283.18 563.49 295.18 564.2 301.43 566.26 307.76 574.31 321.85 580.62 329.72 585.93 335.08 591.83 340.8 598.19 346.87 605.13 352.93 612.24 359.36 619.29 366.12 626.34 372.89 632.89 379.99 638.66 387.45 643.76 394.9 647.56 402.53 649.95 410.32 651.28 418.13 651.08 426.12 649.39 434.29 646.63 442.51 642.52 450.92 637.21 459.52 631.13 468.17 624.16 477.03 616.5 486.04 608.51 495.1 600.15 504.28 591.63 513.53 583.2 522.72 574.85 531.88 566.69 540.89 558.92 549.66 551.46 558.12 544.37 566.09 537.78 573.57 531.54 580.36 525.64 586.28 517.64 593.54 503.22 601.15 496.46 601.33 490.01 599.4 476.62 591.14 469.44 586.17 462.02 582.4 445.59 580.47 436.51 583.48 430.33 587.53 423.8 592.8 416.94 599.12 410.06 606.5 402.86 614.34 395.35 622.2 387.84 629.94 380.21 636.65 372.51 641.96 364.83 646.04 357.09 648.2 349.33 648.37 341.61 646.91 333.89 643.48 326.22 638.3 318.61 631.84 311.08 624.08 303.67 615.37 296.35 606.17 289.18 596.6 282.22 586.97 275.39 577.64 268.8 568.69 262.5 560.28 256.38 552.66 250.58 545.74 245.16 539.55 237.52 531.91 224.66 520.47 219.49 516.02 211.64 508.4 203.73 494.91 202.07 488.95 200.34 482.38 197.05 466.64 195.31 457.55 193.81 451.29 192.33 444.62 190.87 437.56 189.1 430.49 187.39 423.05 185.8 415.29 184.01 407.52 182.48 399.61 181.27 391.59 180.03 383.57 179.24 375.44 178.91 367.22 178.74 359 179.13 350.68 180.1 342.29 181.34 333.89 183.21 325.42 185.67 316.92 188.46 308.45 191.84 299.97 195.78 291.53 200.01 283.19 204.76 274.96 209.96 266.93 215.38 259.1 221.19 251.57 227.33 244.44 233.59 237.65 240.11 231.37 246.85 225.71 253.61 220.51 260.54 216.01 267.58 212.28 274.59 209.06 281.69 206.61 288.86 204.94 295.95 203.65 303.1 203.02 310.3 202.98 317.41 203.03 324.59 203.43 331.82 204.04 338.98 204.33 346.22 204.55 353.54 204.57 360.8 203.89 368.18 202.81 375.66 201.26 383.12 198.88 390.7 196.04 398.42 192.82 406.13 188.98 413.99 185.01 421.98 181.11" stroke-dasharray="1 8" transform="rotate(24.24, 400, 400)" opacity="0.26"></path><path d="M422.45 192.13C430.05 188.28 437.55 184.96 444.92 182.34 452.28 180.18 459.49 178.98 466.53 178.8 473.53 179.36 480.32 181 486.85 183.68 493.31 187.07 499.46 191.36 505.26 196.43 510.94 201.95 516.22 208.03 521.04 214.5 525.69 221.07 529.85 227.82 533.47 234.62 536.91 241.23 539.79 247.74 542.13 254.09 545.12 262.96 548.57 279.05 549.33 286.38 550.06 293.08 551.74 305.99 553.29 312.49 556.16 318.91 565.42 332.78 572.03 340.37 577.37 345.49 583.18 350.94 589.34 356.72 595.96 362.48 602.68 368.59 609.29 375.05 615.87 381.5 621.96 388.3 627.34 395.47 632.12 402.63 635.73 410 638.07 417.55 639.47 425.11 639.51 432.87 638.2 440.81 635.93 448.76 632.41 456.9 627.79 465.19 622.43 473.5 616.19 481.94 609.25 490.47 601.95 498.98 594.22 507.51 586.23 515.99 578.23 524.35 570.2 532.54 562.25 540.46 554.56 548.09 547.08 555.28 539.86 561.9 533.04 568.03 526.51 573.41 520.27 577.93 511.64 583.21 495.94 587.64 488.61 586.82 481.66 584.45 467.67 576.75 460.4 572.67 453.02 569.98 437.03 570.08 428.35 573.74 422.47 577.96 416.29 583.22 409.82 589.36 403.34 596.4 396.58 603.79 389.55 611.17 382.51 618.44 375.39 624.78 368.2 629.89 361.04 633.93 353.83 636.28 346.63 636.85 339.46 635.97 332.32 633.31 325.24 629.02 318.22 623.51 311.3 616.73 304.51 608.94 297.82 600.56 291.29 591.68 284.99 582.56 278.8 573.52 272.87 564.65 267.23 556.13 261.74 548.16 256.58 540.74 251.78 533.89 247.15 527.79 242.9 522.26 239.05 517.25 233.73 510.92 225.28 500.46 222.11 495.75 219.33 491.33 215.17 481.52 213.59 475.8 211.88 469.69 208.51 455.25 206.72 446.92 205.2 441.19 203.69 435.05 202.21 428.51 200.43 421.96 198.72 415.02 197.12 407.73 195.33 400.43 193.79 392.95 192.54 385.33 191.26 377.72 190.39 369.96 189.96 362.11 189.65 354.26 189.87 346.32 190.62 338.32 191.62 330.34 193.2 322.32 195.35 314.31 197.78 306.36 200.79 298.46 204.34 290.67 208.16 283.02 212.49 275.55 217.27 268.34 222.27 261.36 227.67 254.74 233.42 248.57 239.31 242.74 245.48 237.44 251.88 232.76 258.36 228.5 265.01 224.9 271.81 222.01 278.61 219.53 285.52 217.73 292.51 216.6 299.46 215.73 306.48 215.4 313.56 215.53 320.58 215.64 327.65 215.98 334.77 216.45 341.84 216.54 348.97 216.51 356.16 216.25 363.3 215.32 370.52 214 377.81 212.26 385.09 209.75 392.44 206.84 399.88 203.6 407.32 199.82 414.84 195.94 422.44 192.14" stroke-dasharray="2 9" transform="rotate(28.28, 400, 400)" opacity="0.71"></path><path d="M421.22 203.16C428.41 199.42 435.43 196.17 442.29 193.57 449.13 191.36 455.79 190.02 462.22 189.62 468.61 189.87 474.76 191.13 480.62 193.35 486.41 196.23 491.88 200 496.98 204.53 501.98 209.53 506.58 215.12 510.75 221.16 514.78 227.39 518.36 233.87 521.46 240.49 524.43 247.03 526.92 253.56 528.95 260.02 530.89 266.21 532.42 272.26 533.55 278.14 535.16 286.38 537.52 301.65 538.72 308.85 540.63 315.65 546.52 329.25 550.9 336.27 554.66 340.89 558.89 345.73 563.57 350.82 568.88 355.85 574.55 361.15 580.47 366.75 586.76 372.32 593.08 378.21 599.25 384.41 605.37 390.61 611.03 397.14 616.02 404.02 620.49 410.89 623.9 417.96 626.17 425.2 627.64 432.44 627.87 439.85 626.9 447.41 625.07 454.97 622.11 462.67 618.12 470.46 613.45 478.24 607.93 486.07 601.72 493.9 595.12 501.66 588.04 509.35 580.65 516.88 573.16 524.24 565.55 531.33 557.92 538.06 550.45 544.46 543.09 550.37 535.89 555.66 529 560.48 522.31 564.56 515.87 567.82 506.8 571.42 490.08 573.38 482.26 571.93 474.84 569.44 460.2 562.73 452.78 559.6 445.34 557.98 429.62 559.93 421.24 564.12 415.6 568.46 409.71 573.67 403.59 579.6 397.47 586.28 391.11 593.24 384.53 600.15 377.95 606.95 371.3 612.93 364.64 617.81 357.98 621.79 351.32 624.27 344.68 625.18 338.08 624.83 331.52 622.86 325.05 619.39 318.64 614.8 312.33 608.97 306.19 602.12 300.12 594.64 294.24 586.53 288.59 578.05 283.04 569.49 277.75 560.92 272.75 552.5 267.87 544.43 263.32 536.74 259.1 529.48 255.02 522.79 251.3 516.59 247.95 510.85 243.28 503.31 235.88 490.55 233.08 484.91 230.57 479.73 226.69 469.09 225.13 463.31 223.41 457.32 219.95 443.6 218.09 435.81 216.55 430.47 215.02 424.75 213.53 418.66 211.75 412.56 210.04 406.09 208.45 399.26 206.66 392.43 205.11 385.42 203.84 378.27 202.53 371.12 201.6 363.84 201.07 356.46 200.64 349.11 200.7 341.68 201.26 334.22 202.02 326.8 203.33 319.39 205.16 312.02 207.26 304.75 209.9 297.58 213.05 290.58 216.46 283.74 220.35 277.14 224.69 270.84 229.25 264.8 234.21 259.13 239.52 253.94 244.99 249.06 250.75 244.72 256.77 240.95 262.87 237.55 269.19 234.76 275.66 232.59 282.17 230.74 288.81 229.46 295.54 228.74 302.28 228.17 309.09 228.02 315.96 228.21 322.8 228.29 329.7 228.51 336.64 228.78 343.55 228.64 350.5 228.34 357.49 227.8 364.45 226.62 371.47 225.08 378.51 223.16 385.55 220.55 392.64 217.59 399.76 214.35 406.87 210.64 414.03 206.86 421.21 203.17" stroke-dasharray="9 10" transform="rotate(32.32, 400, 400)" opacity="0.38"></path><path d="M418.4 214.19C425.14 210.57 431.69 207.41 438.03 204.83 447.41 201.87 464.92 200.96 472.94 203.19 478.13 205.58 482.99 208.81 487.5 212.79 491.92 217.24 495.96 222.29 499.61 227.84 503.16 233.62 506.3 239.73 509.02 246.06 511.67 252.4 513.92 258.82 515.79 265.24 517.64 271.5 519.16 277.68 520.39 283.75 522.27 292.42 525.66 308.74 527.54 316.47 530.15 323.8 537.35 338.23 542.21 345.51 546.18 350.28 550.52 355.2 555.22 360.31 560.45 365.34 565.93 370.6 571.58 376.09 577.53 381.55 583.44 387.27 589.18 393.27 594.85 399.25 600.08 405.53 604.7 412.1 608.86 418.67 612.07 425.39 614.27 432.24 615.77 439.09 616.17 446.06 615.5 453.12 614.07 460.17 611.62 467.28 608.22 474.42 604.2 481.52 599.38 488.59 593.87 495.57 587.98 502.45 581.58 509.17 574.82 515.65 567.91 521.93 560.8 527.88 553.6 533.4 546.46 538.6 539.34 543.28 532.31 547.34 525.48 550.98 518.79 553.93 512.27 556.13 502.97 558.38 485.57 558.62 477.38 556.88 469.57 554.55 454.34 549.15 446.75 547.01 439.22 546.41 423.65 550.01 415.52 554.63 410.06 559.03 404.43 564.14 398.62 569.83 392.82 576.16 386.83 582.68 380.67 589.12 374.51 595.47 368.34 601.09 362.17 605.73 356.02 609.61 349.89 612.19 343.81 613.38 337.76 613.48 331.78 612.13 325.91 609.43 320.09 605.69 314.41 600.78 308.89 594.88 303.44 588.31 298.18 581.06 293.16 573.33 288.22 565.39 283.53 557.28 279.13 549.17 274.83 541.24 270.83 533.52 267.15 526.08 263.57 519.06 260.31 512.4 257.39 506.13 253.3 497.61 246.77 482.79 244.26 476.2 241.95 470.16 238.24 458.35 236.68 452.28 234.93 446.14 231.34 432.66 229.43 425.21 227.87 420.14 226.33 414.74 224.82 409.02 223.06 403.3 221.36 397.25 219.77 390.88 218 384.52 216.46 377.99 215.17 371.35 213.85 364.71 212.87 357.97 212.25 351.17 211.73 344.4 211.64 337.59 212.01 330.78 212.56 324.04 213.61 317.34 215.15 310.74 216.92 304.25 219.2 297.9 221.95 291.77 224.94 285.82 228.4 280.13 232.29 274.78 236.39 269.67 240.88 264.95 245.72 260.7 250.73 256.72 256.04 253.25 261.61 250.31 267.3 247.66 273.2 245.54 279.29 243.97 285.43 242.6 291.72 241.71 298.12 241.27 304.55 240.87 311.07 240.79 317.65 240.94 324.24 240.92 330.88 240.96 337.55 240.99 344.22 240.6 350.93 240.02 357.65 239.21 364.37 237.79 371.11 236.05 377.86 233.97 384.61 231.27 391.37 228.28 398.13 225.07 404.89 221.44 411.65 217.76 418.39 214.19" stroke-dasharray="2 9" transform="rotate(36.36, 400, 400)" opacity="0.72"></path><path d="M414.2 225.22C420.48 221.73 426.55 218.67 432.39 216.13 438.22 213.88 443.8 212.35 449.12 211.56 459.69 211.56 469.09 214.9 477.17 221.25 485.03 229.43 491.49 239.76 496.51 251.46 501.41 263.51 505.12 275.97 507.83 288.34 511.07 300.04 514.01 311.39 517.08 322.39 521.68 332.6 527.18 342.74 533.83 352.98 542.48 362.77 552.26 373.04 562.67 383.92 568.25 389.31 573.76 394.91 579.07 400.71 584.3 406.5 589.12 412.51 593.38 418.76 597.23 425.01 600.25 431.34 602.36 437.74 603.87 444.13 604.42 450.58 604 457.05 601.22 469.92 594.89 482.69 585.69 494.92 574.96 506.68 562.51 517.36 549.16 526.41 535.79 534.33 522.37 540.02 509.32 543.12 497.01 544.96 485.18 544.42 473.86 541.9 463.22 539.59 452.78 536.91 442.41 534.94 432.37 535.84 422.06 539.15 411.42 545.25 406.13 549.65 400.72 554.63 395.2 560.06 389.67 566.02 384.03 572.1 378.27 578.09 372.51 584 366.77 589.25 361.08 593.65 355.4 597.41 349.78 600.04 344.24 601.45 333.22 601.43 322.64 596.4 312.73 587.16 303.05 575.3 294.2 561.12 286.39 545.94 278.89 530.89 272.51 516.36 267.35 502.88 262.36 490.82 258.47 479.87 255.61 469.81 252.5 460.87 250.09 452.18 248.21 443.35 245.54 434.96 243.06 425.93 240.72 416.06 238.38 408.57 233.5 392.33 231.09 383.57 229.35 377.64 227.83 371.61 226.54 365.5 225.21 359.41 224.19 353.25 223.51 347.08 222.39 334.83 222.98 322.69 225.31 311.02 228.46 299.79 233.46 289.43 240.11 280.36 247.58 272.1 256.49 265.48 266.54 260.76 277.08 256.85 288.47 254.67 300.41 254.05 312.54 253.29 325.04 253.14 337.71 253.04 350.42 251.24 363.25 248.52 376.04 244.67 382.44 241.92 388.84 238.92 395.2 235.75 401.57 232.21 407.91 228.66 414.19 225.22" stroke-dasharray="1 4" transform="rotate(40.400000000000006, 400, 400)" opacity="0.62"></path><path d="M408.93 236.24C420.56 229.62 431.29 224.93 440.99 222.69 450.61 222.17 459.11 224.68 466.4 229.96 473.55 236.98 479.49 246.15 484.23 256.82 489.02 268.08 492.87 279.99 496.03 292.06 499.8 303.78 503.45 315.34 507.34 326.61 512.62 337.29 518.71 347.84 525.72 358.35 534.39 368.47 543.88 378.86 553.74 389.61 564.22 400.24 573.97 411.44 582.05 423.22 588.76 435.01 592.26 446.85 592.41 458.52 590.35 470.08 585.08 481.24 577.17 491.61 567.79 501.52 556.67 510.19 544.49 517.17 532.09 523.25 519.38 527.29 506.79 529.12 494.69 530.16 482.91 529.36 471.54 527.19 460.72 525.62 450.14 524.07 439.72 523.4 429.61 525.4 419.4 529.53 409.07 535.97 398.82 545.31 388.27 556.09 377.5 567.06 366.72 577.78 356.21 585.52 346.12 589.4 336.09 590.16 326.58 586.48 317.79 578.93 309.15 568.89 301.34 556.4 294.51 542.57 287.89 528.43 282.28 514.31 277.75 500.79 273.28 488.25 269.73 476.57 267.07 465.72 264.08 455.82 261.67 446.32 259.71 436.96 256.97 428.06 254.4 418.83 251.97 409.13 248.58 399.51 245.33 389.2 242.41 378.18 238.9 367.16 236.32 355.99 234.85 344.91 233.57 333.96 233.83 323.31 235.67 313.3 238.21 303.68 242.44 295.02 248.22 287.66 254.74 280.94 262.65 275.73 271.68 272.18 281.21 269.12 291.62 267.46 302.62 266.97 313.86 266.08 325.52 265.53 337.36 264.87 349.3 262.57 361.35 259.41 373.34 255.27 385.36 249.28 397.28 242.71 408.92 236.25" stroke-dasharray="10 2" transform="rotate(44.44, 400, 400)" opacity="0.70"></path><path d="M402.98 247.27C413.69 240.94 423.51 236.35 432.36 233.93 441.15 232.96 448.92 234.69 455.61 238.96 462.24 244.82 467.86 252.78 472.52 262.29 477.33 272.55 481.46 283.66 485.12 295.14 489.42 306.55 493.74 317.98 498.33 329.23 504.15 340.11 510.64 350.85 517.86 361.46 526.4 371.78 535.51 382.19 544.76 392.74 554.44 403.19 563.36 413.94 570.73 424.97 576.93 436 580.3 446.79 580.74 457.13 579.3 467.37 575.01 476.96 568.29 485.58 560.23 493.79 550.43 500.7 539.5 506 528.19 510.63 516.38 513.48 504.49 514.52 492.85 515.19 481.37 514.52 470.2 512.96 459.43 512.28 448.88 511.87 438.56 512.41 428.49 515.36 418.46 520.13 408.46 526.78 398.53 535.81 388.5 545.91 378.42 556.04 368.33 565.94 358.66 573.25 349.5 577.25 340.37 578.65 331.84 576.16 324.03 570.17 316.32 561.89 309.41 551.15 303.42 538.86 297.53 525.95 292.55 512.63 288.51 499.52 284.43 486.97 281.13 475 278.58 463.72 275.65 453.17 273.2 443.08 271.13 433.3 268.32 423.93 265.67 414.52 263.17 404.93 259.8 395.45 256.6 385.58 253.73 375.34 250.33 365.1 247.78 354.98 246.25 345.18 244.85 335.47 244.83 326.26 246.23 317.8 248.2 309.66 251.72 302.52 256.66 296.63 262.25 291.18 269.16 287.08 277.14 284.36 285.62 281.86 294.97 280.44 304.94 279.87 315.19 278.71 325.88 277.69 336.8 276.45 347.84 273.67 359.01 270.12 370.1 265.77 381.25 259.82 392.27 253.46 402.98 247.27" stroke-dasharray="8 10" transform="rotate(48.48, 400, 400)" opacity="0.72"></path><path d="M396.81 258.3C406.61 252.29 415.59 247.82 423.69 245.27 431.76 243.92 438.93 244.96 445.2 248.28 451.47 253.02 456.92 259.75 461.63 268.03 466.57 277.13 471.03 287.21 475.19 297.86 479.98 308.64 484.86 319.61 490.01 330.54 496.2 341.28 502.94 351.93 510.2 362.41 518.5 372.71 527.13 382.98 535.74 393.19 544.62 403.34 552.72 413.57 559.41 423.79 565.1 434.02 568.32 443.74 568.99 452.82 568.08 461.79 564.66 469.94 559.05 477.03 552.23 483.8 543.75 489.28 534.1 493.3 523.97 496.9 513.21 499.02 502.19 499.72 491.25 500.38 480.31 500.14 469.56 499.39 459.08 499.65 448.77 500.34 438.7 501.97 428.83 505.71 419.07 510.95 409.45 517.68 399.9 526.32 390.38 535.72 380.96 545.01 371.53 554.11 362.63 560.97 354.31 564.99 345.99 566.9 338.31 565.44 331.36 560.87 324.44 554.26 318.3 545.27 312.99 534.63 307.7 523.16 303.21 510.98 299.53 498.67 295.73 486.56 292.6 474.75 290.09 463.44 287.17 452.63 284.65 442.25 282.46 432.26 279.59 422.61 276.86 413.1 274.31 403.66 270.99 394.33 267.85 384.89 265.05 375.39 261.77 365.88 259.29 356.74 257.73 348.11 256.24 339.55 255.99 331.63 257 324.54 258.46 317.68 261.32 311.8 265.46 307.07 270.17 302.6 276.09 299.28 283.04 297.08 290.44 294.87 298.71 293.45 307.6 292.62 316.78 291.09 326.43 289.55 336.33 287.74 346.37 284.53 356.57 280.66 366.72 276.16 376.92 270.31 387.02 264.19 396.81 258.3" stroke-dasharray="7 4" transform="rotate(52.52, 400, 400)" opacity="0.36"></path><path d="M390.89 269.32C399.8 263.65 408.01 259.35 415.47 256.72 422.91 255.07 429.61 255.5 435.57 257.94 441.58 261.62 446.97 267.13 451.81 274.15 456.91 281.99 461.69 290.9 466.3 300.48 471.49 310.36 476.8 320.58 482.34 330.88 488.75 341.15 495.55 351.4 502.71 361.5 510.65 371.51 518.74 381.42 526.66 391.15 534.75 400.85 542.06 410.45 548.09 419.83 553.28 429.21 556.33 437.92 557.17 445.83 556.71 453.66 554.06 460.57 549.46 466.42 543.79 472.04 536.57 476.48 528.2 479.65 519.31 482.62 509.69 484.41 499.69 485.15 489.63 486.1 479.44 486.47 469.32 486.62 459.35 487.82 449.49 489.52 439.84 492.08 430.33 496.42 420.97 501.97 411.8 508.64 402.7 516.82 393.71 525.51 384.93 533.98 376.14 542.3 367.94 548.68 360.36 552.65 352.78 554.94 345.84 554.33 339.6 551.03 333.36 545.95 327.83 538.65 323.05 529.69 318.23 519.81 314.11 509.02 310.69 497.83 307.08 486.56 304.04 475.33 301.51 464.4 298.58 453.74 295.98 443.42 293.67 433.51 290.74 423.83 287.97 414.39 285.38 405.21 282.13 396.11 279.08 387.13 276.38 378.31 273.24 369.49 270.84 361.24 269.28 353.65 267.74 346.09 267.3 339.26 267.97 333.3 270.12 325 281.04 313.44 289.48 310.04 295.82 307.88 302.99 306.28 310.79 305.06 318.86 303.09 327.41 301.04 336.26 298.7 345.25 295.13 354.42 291.02 363.59 286.43 372.81 280.74 381.97 274.89 390.89 269.32" stroke-dasharray="5 10" transform="rotate(56.56, 400, 400)" opacity="0.72"></path><path d="M385.64 280.35C393.71 275.04 401.21 270.94 408.09 268.28 414.98 266.4 421.29 266.3 427.03 267.97 432.86 270.67 438.23 275.03 443.21 280.79 448.45 287.34 453.5 294.96 458.45 303.34 463.92 312.09 469.5 321.3 475.27 330.71 481.71 340.21 488.43 349.77 495.34 359.22 502.82 368.67 510.32 377.99 517.54 387.07 524.83 396.16 531.38 405.02 536.77 413.54 541.47 422.07 544.32 429.82 545.28 436.72 545.2 443.56 543.2 449.47 539.51 454.38 534.91 459.18 528.88 462.93 521.74 465.65 514.1 468.33 505.68 470.13 496.79 471.19 487.76 472.61 478.48 473.71 469.16 474.77 459.9 476.84 450.67 479.41 441.61 482.7 432.63 487.47 423.79 493.16 415.17 499.67 406.59 507.33 398.19 515.28 390.03 522.95 381.88 530.49 374.33 536.37 367.41 540.23 360.48 542.77 354.17 542.87 348.52 540.65 342.84 536.95 337.81 531.22 333.44 523.91 328.98 515.68 325.12 506.42 321.85 496.57 318.38 486.47 315.37 476.18 312.79 465.99 309.83 455.89 307.15 446 304.74 436.45 301.78 427.04 298.99 417.92 296.39 409.13 293.23 400.4 290.29 391.92 287.7 383.77 284.73 375.62 282.44 368.16 280.9 361.43 279.05 351.74 280.67 336.47 284.29 330.99 289.47 326.26 304.92 319.7 314.7 317.07 321.66 314.65 329.12 312.11 336.89 309.31 344.8 305.46 352.93 301.19 361.11 296.6 369.35 291.11 377.57 285.58 385.64 280.35" stroke-dasharray="2 2" transform="rotate(60.599999999999994, 400, 400)" opacity="0.41"></path><path d="M381.48 291.38C388.73 286.44 395.57 282.57 401.94 279.94 411.31 277.65 428.17 281.86 435.92 288.07 441.24 293.34 446.46 299.64 451.63 306.72 457.22 314.21 462.92 322.24 468.72 330.55 475.04 339.03 481.53 347.65 488.07 356.22 495.01 364.85 501.85 373.38 508.35 381.67 514.86 389.97 520.67 398.02 525.45 405.68 529.67 413.34 532.31 420.22 533.34 426.27 532.83 434.87 523.11 447.67 514.68 451.94 508.26 454.61 501.05 456.65 493.32 458.2 485.4 460.18 477.16 462.02 468.78 463.93 460.39 466.74 451.95 470 443.62 473.83 435.32 478.83 427.13 484.51 419.14 490.74 411.19 497.82 403.41 505.04 395.89 511.93 388.37 518.71 381.43 524.07 375.11 527.75 365.88 530.74 350.29 525.09 343.9 517.19 339.73 510.58 336.06 502.91 332.88 494.55 329.49 485.82 326.49 476.74 323.85 467.58 320.87 458.38 318.13 449.25 315.64 440.36 312.69 431.53 309.91 422.95 307.34 414.72 304.29 406.52 301.48 398.63 299.02 391.13 296.23 383.64 294.07 376.88 292.58 370.86 290.71 362.18 291.52 348.56 294.34 343.55 298.46 338.98 311.21 331.8 319.47 328.5 325.36 325.67 331.75 322.71 338.48 319.54 345.32 315.51 352.42 311.18 359.64 306.66 366.9 301.43 374.22 296.24 381.48 291.38" stroke-dasharray="2 8" transform="rotate(64.64, 400, 400)" opacity="0.33"></path><path d="M378.7 302.41C385.19 297.87 391.39 294.27 397.28 291.71 406.01 289.18 422.26 291.44 429.98 296.07 435.28 300.13 440.54 305.15 445.77 310.92 451.32 317.09 456.94 323.82 462.62 330.9 468.67 338.19 474.78 345.69 480.84 353.22 487.17 360.83 493.33 368.4 499.1 375.77 504.84 383.17 509.94 390.34 514.13 397.15 519.08 407 521.29 423.07 518.6 429.28 513.83 434.83 498.71 443.15 489.13 446.45 482.37 448.99 475.22 451.5 467.87 454.13 460.47 457.51 452.95 461.25 445.46 465.42 437.98 470.48 430.55 476 423.27 481.84 416.02 488.31 408.92 494.78 402.05 500.9 395.18 506.93 388.85 511.76 383.07 515.21 374.62 518.42 360.24 515.33 354.24 509.45 350.29 504.37 346.76 498.27 343.64 491.42 340.32 484.18 337.32 476.48 334.64 468.56 331.65 460.51 328.89 452.4 326.36 444.42 323.45 436.43 320.71 428.61 318.2 421.09 315.31 413.58 312.66 406.36 310.34 399.53 306.75 389.63 302.49 373.25 302.11 366.7 302.68 360.69 308.02 351.2 312.7 347.34 318.35 343.19 332.79 334.45 341.21 329.39 347.04 325.28 353.15 320.98 359.44 316.6 365.76 311.69 372.21 306.88 378.7 302.41" stroke-dasharray="10 4" transform="rotate(68.68, 400, 400)" opacity="0.47"></path><path d="M377.53 313.43C389.03 305.31 399.95 300.84 410.08 300.38 420.53 301.86 430.76 307.47 440.75 316.16 451.68 326.22 462.84 338.27 473.63 350.94 485.04 363.98 495.3 376.99 502.81 388.94 508.96 400.89 510.47 410.52 507.68 417.84 503.04 425.39 494.76 431.3 484.12 436.17 472.7 442.6 459.86 449.54 446.75 457.42 433.59 467.9 420.44 479.27 408.06 489.87 395.67 500.21 385.07 505.92 376.35 506.52 367.38 504.35 359.93 497.31 354 486.95 347.32 475.12 341.6 461.56 336.88 447.79 330.93 433.85 325.68 420.28 321.66 407.98 316.76 395.68 314.13 385.7 313.87 377.96 313.84 369.88 316.61 363.45 321.85 358.27 327.62 351.76 335.65 345.37 345.22 338.83 355.04 330.21 366.03 321.36 377.53 313.43" stroke-dasharray="1 8" transform="rotate(72.72, 400, 400)" opacity="0.80"></path><path d="M378.04 324.46C388.11 317.19 398.02 312.94 407.51 311.97 417.23 312.34 426.95 316.15 436.45 322.64 446.59 330.21 456.77 339.71 466.38 350.05 476.33 360.74 485.11 371.69 491.49 382.03 496.85 392.37 498.41 401.07 496.46 408.11 493.15 415.44 486.74 421.75 478.19 427.45 468.96 434.43 458.3 441.84 447.14 449.8 435.88 459.55 424.43 469.67 413.46 478.84 402.48 487.82 392.93 493.07 384.9 494.26 376.66 493.49 369.63 488.7 363.83 480.96 357.43 471.98 351.84 461.16 347.17 449.73 341.57 438.06 336.68 426.38 332.98 415.5 328.59 404.62 326.19 395.5 325.81 388.09 325.51 380.35 327.55 373.76 331.7 368.06 336.17 361.27 342.62 354.55 350.56 347.88 358.65 339.7 367.97 331.58 378.04 324.46" stroke-dasharray="6 4" transform="rotate(76.76, 400, 400)" opacity="0.56"></path><path d="M380.21 335.49C388.89 329.11 397.7 325.21 406.33 323.92 415.13 323.51 424.03 325.85 432.72 330.44 441.79 335.82 450.78 342.96 459.08 351.09 467.52 359.49 474.86 368.42 480.17 377.22 484.74 386.02 486.26 393.84 484.99 400.62 482.75 407.65 477.96 414.17 471.31 420.34 464.12 427.44 455.56 434.87 446.35 442.49 437.04 451.26 427.35 460.04 417.85 467.82 408.34 475.45 399.88 480.13 392.58 481.65 385.12 481.86 378.57 478.88 373.02 473.39 367.02 466.96 361.69 458.73 357.22 449.64 352.08 440.31 347.63 430.6 344.31 421.2 340.45 411.8 338.32 403.55 337.89 396.48 337.44 389.14 338.93 382.54 342.17 376.55 345.58 369.76 350.7 363.04 357.18 356.54 363.74 349.02 371.52 341.74 380.21 335.49" stroke-dasharray="3 5" transform="rotate(80.80000000000001, 400, 400)" opacity="0.90"></path><path d="M383.86 346.52C391.16 341.09 398.75 337.64 406.31 336.22 413.99 335.32 421.79 336.56 429.37 339.63 437.17 343.19 444.77 348.29 451.68 354.42 458.61 360.73 464.56 367.77 468.84 375.08 472.63 382.39 474.03 389.28 473.27 395.64 471.87 402.19 468.45 408.56 463.47 414.75 458.11 421.54 451.5 428.51 444.19 435.43 436.78 443.02 428.87 450.39 420.89 456.79 412.92 463.09 405.62 467.1 399.15 468.72 392.57 469.54 386.65 467.92 381.51 464.24 376.05 459.94 371.16 454.03 367.03 447.12 362.45 440.02 358.53 432.29 355.63 424.42 352.34 416.55 350.52 409.27 350.11 402.71 349.62 395.95 350.7 389.6 353.21 383.67 355.78 377.21 359.77 370.85 364.97 364.81 370.19 358.15 376.56 351.85 383.86 346.52" stroke-dasharray="10 10" transform="rotate(84.84, 400, 400)" opacity="0.34"></path><path d="M388.72 357.54C400.54 348.8 413.86 346.54 426.24 350.12 438.98 354.77 450.66 364.13 457.52 375.85 463.14 387.56 461.56 399.48 454.71 410.51 446.89 422.91 435.17 435.78 422.37 445.76 409.57 455.5 398.09 457.87 389.21 453.66 379.57 447.98 371.5 437.39 366.95 424.79 361.39 412.18 360.84 400.01 364.69 389.42 368.53 377.63 376.89 366.07 388.72 357.54" stroke-dasharray="3 4" transform="rotate(88.88, 400, 400)" opacity="0.94"></path><path d="M394.43 368.57C403.42 361.85 413.68 359.73 423.13 361.81 432.69 364.35 441.26 370.61 446.2 379.45 450.46 388.27 449.68 398.09 445.09 407.41 439.98 417.34 431.76 427.31 422.17 434.74 412.57 442.02 403.46 444.23 396.12 441.81 388.4 438.69 381.91 431.66 378.27 422.25 374.05 412.83 373.63 402.88 376.48 393.89 379.25 384.36 385.44 375.17 394.43 368.57" stroke-dasharray="1 2" transform="rotate(92.92, 400, 400)" opacity="0.92"></path><path d="M400.56 379.6C412.73 370.54 428.34 373.55 434.88 385.45 440.23 397.33 433.04 414.04 420.3 423.71 407.55 433.14 394.41 429.57 389.59 417.11 383.71 404.63 388.39 388.43 400.56 379.6" stroke-dasharray="0 0" transform="rotate(96.96, 400, 400)" opacity="0.49"></path></g></svg>