<svg xmlns="http://www.w3.org/2000/svg" version="1.1" xmlns:xlink="http://www.w3.org/1999/xlink" viewBox="0 0 700 700" style="overflow: hidden; display: block;" width="700" height="700"><defs><linearGradient id="two-467" x1="350" y1="-350" x2="350" y2="350" spreadMethod="pad" gradientUnits="userSpaceOnUse"><stop offset="0%" stop-color="#110a29" stop-opacity="1"></stop><stop offset="100%" stop-color="rgb(255, 104, 182" stop-opacity="1"></stop></linearGradient></defs><g id="two-0" transform="matrix(1 0 0 1 0 0)" opacity="1"><path transform="matrix(1 0 0 1 350 350)" id="two-1117" d="M 219.377927 43.636982 C 220.051663 58.080942 209.777769 72.78094 199.01135 82.4332 C 186.436679 93.706585 156.674075 85.111912 151.379994 101.148878 C 135.032651 150.668663 271.261754 197.528222 235.145935 235.145935 C 202.000437 269.669803 153.022576 144.238062 109.14085 163.340825 C 89.304267 171.976163 106.02235 209.103624 94.088188 227.148979 C 84.448832 241.724414 63.235996 245.635629 51.420959 258.510619 C 29.400281 282.506821 32.567718 343.017621 0 342.74998 C -33.163882 342.477439 -18.374801 262.370698 -50.945358 256.119607 C -84.282008 249.721485 -101.533845 333.717344 -132.210043 319.183277 C -167.049525 302.67669 -131.940205 240.808956 -135.238208 202.398279 C -136.90966 182.931463 -129.572574 157.190468 -143.815462 143.815461 C -159.155312 129.410333 -187.227632 144.662666 -207.365756 138.557368 C -226.99897 132.605143 -258.09875 128.605899 -261.738759 108.415743 C -266.972667 79.384652 -218.611202 65.904041 -203.614377 40.501417 C -196.357675 28.209531 -183.012549 13.206845 -188.428214 0 C -207.997973 -47.723549 -333.355701 -14.20517 -330.256729 -65.692148 C -328.249763 -99.036303 -265.225579 -85.135855 -233.965541 -96.9117 C -215.787922 -103.759319 -197.207833 -111.372625 -179.911502 -120.213023 C -167.117897 -126.752014 -149.036462 -129.716368 -142.522979 -142.522979 C -130.1909 -166.769933 -164.53004 -201.561984 -150.078826 -224.608835 C -140.834644 -239.35149 -117.477663 -238.485898 -100.707483 -243.129369 C -84.377723 -247.650893 -66.426225 -247.498534 -50.203596 -252.390519 C -32.95021 -257.593331 -16.87534 -267.554948 -0.000001 -273.877248 C 18.90703 -280.960716 39.976205 -301.339402 58.219353 -292.688456 C 83.275944 -280.806556 62.551079 -223.317748 88.817088 -214.423421 C 122.282531 -203.091186 145.212311 -266.403323 180.36709 -269.938427 C 203.360559 -272.250611 231.662773 -264.178731 246.277268 -246.277269 C 261.994103 -227.025539 262.610891 -195.953253 257.022768 -171.737124 C 248.874221 -136.425396 180.396265 -113.928789 195.309981 -80.900044 C 213.001497 -41.71943 317.608415 -106.982616 324.552506 -64.557508 C 332.4597 -16.248295 204.14635 -47.15305 190.997445 -0.000001 C 186.383332 16.546586 218.577538 26.477759 219.377927 43.636982 Z " fill="url(#two-467)" stroke="undefined" stroke-width="1" stroke-opacity="1" fill-opacity="1" visibility="visible" stroke-linecap="butt" stroke-linejoin="miter" stroke-miterlimit="4"></path></g></svg>